<svg xmlns="http://www.w3.org/2000/svg" xmlns:xlink="http://www.w3.org/1999/xlink" width="500" zoomAndPan="magnify" viewBox="0 0 375 374.999991" height="500" preserveAspectRatio="xMidYMid meet" version="1.0"><defs><g/><clipPath id="c265995f34"><path d="M 172 65.472656 L 255 65.472656 L 255 182 L 172 182 Z M 172 65.472656 " clip-rule="nonzero"/></clipPath><clipPath id="0f1a3b855c"><path d="M 148 201 L 282.21875 201 L 282.21875 230.472656 L 148 230.472656 Z M 148 201 " clip-rule="nonzero"/></clipPath><clipPath id="a1e8a0b32e"><path d="M 92.46875 112 L 176 112 L 176 230.472656 L 92.46875 230.472656 Z M 92.46875 112 " clip-rule="nonzero"/></clipPath></defs><rect x="-37.5" width="450" fill="#ffffff" y="-37.499999" height="449.999989" fill-opacity="1"/><rect x="-37.5" width="450" fill="#ffffff" y="-37.499999" height="449.999989" fill-opacity="1"/><g clip-path="url(#c265995f34)"><path fill="#54afe6" d="M 254.371094 181.976562 L 187.371094 65.484375 L 172.050781 92.125 L 223.097656 181.976562 L 254.371094 181.976562 " fill-opacity="1" fill-rule="nonzero"/></g><g clip-path="url(#0f1a3b855c)"><path fill="#4290d4" d="M 265.382812 201.121094 L 165.507812 201.121094 L 148.96875 230.457031 L 282.253906 230.457031 L 265.382812 201.121094 " fill-opacity="1" fill-rule="nonzero"/></g><g clip-path="url(#a1e8a0b32e)"><path fill="#286291" d="M 160.335938 112.492188 L 92.484375 230.457031 L 123.632812 230.457031 L 175.703125 140.101562 L 160.335938 112.492188 " fill-opacity="1" fill-rule="nonzero"/></g><g fill="#858383" fill-opacity="1"><g transform="translate(56.00695, 297.478896)"><g><path d="M 33.15625 -27 C 35.445312 -25.945312 37.242188 -24.492188 38.546875 -22.640625 C 39.847656 -20.796875 40.5 -18.625 40.5 -16.125 L 40.5 -13.125 C 40.5 -9.019531 39.125 -5.707031 36.375 -3.1875 C 33.625 -0.664062 30 0.59375 25.5 0.59375 L 18.21875 0.59375 C 15.320312 0.59375 12.75 -0.0390625 10.5 -1.3125 C 8.25 -2.582031 6.507812 -4.367188 5.28125 -6.671875 C 4.0625 -8.972656 3.453125 -11.625 3.453125 -14.625 L 8.84375 -14.625 C 8.84375 -11.519531 9.707031 -9.03125 11.4375 -7.15625 C 13.164062 -5.28125 15.425781 -4.34375 18.21875 -4.34375 L 25.5 -4.34375 C 28.351562 -4.34375 30.640625 -5.144531 32.359375 -6.75 C 34.085938 -8.351562 34.953125 -10.476562 34.953125 -13.125 L 34.953125 -16.125 C 34.953125 -18.925781 34.113281 -21.015625 32.4375 -22.390625 C 30.757812 -23.765625 28.375 -24.453125 25.28125 -24.453125 L 17.328125 -24.453125 L 17.328125 -29.25 L 25.28125 -29.25 C 28.03125 -29.25 30.164062 -29.945312 31.6875 -31.34375 C 33.207031 -32.75 33.96875 -34.773438 33.96875 -37.421875 L 33.96875 -40.421875 C 33.96875 -42.773438 33.207031 -44.648438 31.6875 -46.046875 C 30.164062 -47.453125 28.15625 -48.15625 25.65625 -48.15625 L 18.375 -48.15625 C 15.675781 -48.15625 13.5 -47.21875 11.84375 -45.34375 C 10.195312 -43.46875 9.375 -40.976562 9.375 -37.875 L 3.828125 -37.875 C 3.828125 -40.875 4.4375 -43.523438 5.65625 -45.828125 C 6.882812 -48.128906 8.597656 -49.914062 10.796875 -51.1875 C 12.992188 -52.457031 15.519531 -53.09375 18.375 -53.09375 L 25.65625 -53.09375 C 29.851562 -53.09375 33.210938 -51.941406 35.734375 -49.640625 C 38.265625 -47.347656 39.53125 -44.273438 39.53125 -40.421875 L 39.53125 -37.421875 C 39.53125 -35.078125 38.96875 -33.003906 37.84375 -31.203125 C 36.71875 -29.398438 35.15625 -28 33.15625 -27 Z M 33.15625 -27 "/></g></g></g><g fill="#858383" fill-opacity="1"><g transform="translate(100.256902, 297.478896)"><g><path d="M 10.875 0 C 9.320312 0 8.117188 -0.421875 7.265625 -1.265625 C 6.421875 -2.117188 6 -3.320312 6 -4.875 L 6 -52.5 L 27.75 -52.5 C 31.445312 -52.5 34.695312 -51.785156 37.5 -50.359375 C 40.300781 -48.929688 42.472656 -46.90625 44.015625 -44.28125 C 45.566406 -41.65625 46.34375 -38.644531 46.34375 -35.25 L 46.34375 -18.75 C 46.34375 -12.601562 44.789062 -7.941406 41.6875 -4.765625 C 38.59375 -1.585938 34.046875 0 28.046875 0 Z M 27.90625 -4.953125 C 32.15625 -4.953125 35.363281 -6.113281 37.53125 -8.4375 C 39.707031 -10.757812 40.796875 -14.195312 40.796875 -18.75 L 40.796875 -35.25 C 40.796875 -38.894531 39.582031 -41.851562 37.15625 -44.125 C 34.738281 -46.40625 31.550781 -47.546875 27.59375 -47.546875 L 11.546875 -47.546875 L 11.546875 -4.953125 Z M 27.90625 -4.953125 "/></g></g></g><g fill="#000000" fill-opacity="1"><g transform="translate(150.81376, 288.564904)"><g><path d="M 36.609375 -30.484375 C 36.609375 -25.742188 35.265625 -22.238281 32.578125 -19.96875 C 29.898438 -17.707031 25.769531 -16.578125 20.1875 -16.578125 L 13.484375 -16.578125 L 13.484375 0 L 4.625 0 L 4.625 -44.03125 L 20.1875 -44.03125 C 25.851562 -44.03125 30.003906 -42.890625 32.640625 -40.609375 C 35.285156 -38.328125 36.609375 -34.953125 36.609375 -30.484375 Z M 27.421875 -30.34375 C 27.421875 -32.34375 26.816406 -33.878906 25.609375 -34.953125 C 24.410156 -36.035156 22.550781 -36.578125 20.03125 -36.578125 L 13.484375 -36.578125 L 13.484375 -24.03125 L 20.03125 -24.03125 C 22.695312 -24.03125 24.59375 -24.566406 25.71875 -25.640625 C 26.851562 -26.710938 27.421875 -28.28125 27.421875 -30.34375 Z M 27.421875 -30.34375 "/></g></g></g><g fill="#000000" fill-opacity="1"><g transform="translate(189.473055, 288.564904)"><g><path d="M 38.328125 -31.6875 C 38.328125 -28.582031 37.539062 -26.03125 35.96875 -24.03125 C 34.394531 -22.03125 31.976562 -20.554688 28.71875 -19.609375 L 28.71875 -19.5 C 29.476562 -19.21875 30.164062 -18.816406 30.78125 -18.296875 C 31.40625 -17.773438 32.054688 -17.007812 32.734375 -16 C 33.421875 -14.988281 34.191406 -13.597656 35.046875 -11.828125 L 40.84375 0 L 31.125 0 L 26.90625 -8.796875 C 25.425781 -11.898438 24.1875 -14.070312 23.1875 -15.3125 C 22.53125 -16.132812 21.875 -16.757812 21.21875 -17.1875 C 20.570312 -17.625 19.75 -17.929688 18.75 -18.109375 C 17.757812 -18.285156 16.414062 -18.375 14.71875 -18.375 L 13.484375 -18.375 L 13.484375 0 L 4.625 0 L 4.625 -44.03125 L 22.890625 -44.03125 C 27.816406 -44.03125 31.617188 -42.96875 34.296875 -40.84375 C 36.984375 -38.726562 38.328125 -35.675781 38.328125 -31.6875 Z M 29.171875 -31.140625 C 29.171875 -33.066406 28.59375 -34.457031 27.4375 -35.3125 C 26.289062 -36.175781 24.503906 -36.609375 22.078125 -36.609375 L 13.484375 -36.609375 L 13.484375 -25.40625 L 21.03125 -25.40625 C 23.707031 -25.40625 25.734375 -25.835938 27.109375 -26.703125 C 28.484375 -27.566406 29.171875 -29.046875 29.171875 -31.140625 Z M 29.171875 -31.140625 "/></g></g></g><g fill="#000000" fill-opacity="1"><g transform="translate(230.925912, 288.564904)"><g><path d="M 2.640625 -21.78125 C 2.640625 -26.425781 3.515625 -30.472656 5.265625 -33.921875 C 7.023438 -37.378906 9.523438 -40.050781 12.765625 -41.9375 C 16.003906 -43.832031 19.789062 -44.78125 24.125 -44.78125 C 28.46875 -44.78125 32.257812 -43.835938 35.5 -41.953125 C 38.75 -40.078125 41.253906 -37.414062 43.015625 -33.96875 C 44.773438 -30.53125 45.65625 -26.523438 45.65625 -21.953125 C 45.65625 -17.503906 44.785156 -13.5625 43.046875 -10.125 C 41.316406 -6.695312 38.835938 -4.023438 35.609375 -2.109375 C 32.390625 -0.203125 28.597656 0.75 24.234375 0.75 C 19.867188 0.75 16.054688 -0.191406 12.796875 -2.078125 C 9.535156 -3.972656 7.023438 -6.628906 5.265625 -10.046875 C 3.515625 -13.460938 2.640625 -17.375 2.640625 -21.78125 Z M 24.125 -37.15625 C 21.59375 -37.15625 19.398438 -36.507812 17.546875 -35.21875 C 15.703125 -33.925781 14.285156 -32.140625 13.296875 -29.859375 C 12.316406 -27.578125 11.828125 -24.960938 11.828125 -22.015625 C 11.828125 -19.078125 12.304688 -16.460938 13.265625 -14.171875 C 14.234375 -11.890625 15.648438 -10.101562 17.515625 -8.8125 C 19.378906 -7.519531 21.601562 -6.875 24.1875 -6.875 C 26.726562 -6.875 28.921875 -7.515625 30.765625 -8.796875 C 32.617188 -10.078125 34.03125 -11.867188 35 -14.171875 C 35.976562 -16.472656 36.46875 -19.128906 36.46875 -22.140625 C 36.46875 -25.023438 35.976562 -27.601562 35 -29.875 C 34.03125 -32.144531 32.617188 -33.925781 30.765625 -35.21875 C 28.921875 -36.507812 26.707031 -37.15625 24.125 -37.15625 Z M 24.125 -37.15625 "/></g></g></g><g fill="#000000" fill-opacity="1"><g transform="translate(279.227502, 288.564904)"><g><path d="M 18.953125 -37.453125 C 17.066406 -37.453125 15.488281 -37.070312 14.21875 -36.3125 C 12.945312 -35.550781 12.3125 -34.476562 12.3125 -33.09375 C 12.3125 -32.175781 12.601562 -31.390625 13.1875 -30.734375 C 13.769531 -30.085938 14.757812 -29.492188 16.15625 -28.953125 C 17.5625 -28.410156 19.554688 -27.84375 22.140625 -27.25 C 26.023438 -26.34375 29.050781 -25.253906 31.21875 -23.984375 C 33.394531 -22.710938 34.914062 -21.191406 35.78125 -19.421875 C 36.65625 -17.648438 37.09375 -15.453125 37.09375 -12.828125 C 37.09375 -9.785156 36.296875 -7.242188 34.703125 -5.203125 C 33.109375 -3.171875 31.007812 -1.671875 28.40625 -0.703125 C 25.8125 0.265625 22.960938 0.75 19.859375 0.75 C 14.867188 0.75 10.832031 -0.519531 7.75 -3.0625 C 4.664062 -5.601562 2.785156 -9.257812 2.109375 -14.03125 L 10.96875 -15.109375 C 11.488281 -12.222656 12.472656 -10.097656 13.921875 -8.734375 C 15.367188 -7.378906 17.425781 -6.703125 20.09375 -6.703125 C 21.695312 -6.703125 23.113281 -6.925781 24.34375 -7.375 C 25.570312 -7.820312 26.523438 -8.457031 27.203125 -9.28125 C 27.890625 -10.101562 28.234375 -11.070312 28.234375 -12.1875 C 28.234375 -13.476562 27.988281 -14.484375 27.5 -15.203125 C 27.007812 -15.921875 26.046875 -16.570312 24.609375 -17.15625 C 23.179688 -17.75 20.945312 -18.410156 17.90625 -19.140625 C 14.320312 -19.992188 11.488281 -21.050781 9.40625 -22.3125 C 7.320312 -23.570312 5.84375 -25.023438 4.96875 -26.671875 C 4.101562 -28.316406 3.671875 -30.238281 3.671875 -32.4375 C 3.671875 -34.84375 4.285156 -36.972656 5.515625 -38.828125 C 6.742188 -40.691406 8.539062 -42.148438 10.90625 -43.203125 C 13.269531 -44.253906 16.09375 -44.78125 19.375 -44.78125 C 24.101562 -44.78125 27.863281 -43.691406 30.65625 -41.515625 C 33.445312 -39.347656 35.179688 -36.191406 35.859375 -32.046875 L 27 -31.0625 C 26.71875 -33.34375 25.925781 -34.976562 24.625 -35.96875 C 23.320312 -36.957031 21.429688 -37.453125 18.953125 -37.453125 Z M 18.953125 -37.453125 "/></g></g></g></svg>